<?xml version="1.0" encoding="us-ascii" standalone="no"?><svg xmlns="http://www.w3.org/2000/svg" xmlns:xlink="http://www.w3.org/1999/xlink" contentStyleType="text/css" height="904px" preserveAspectRatio="none" style="width:1747px;height:904px;background:#FFFFFF;" version="1.1" viewBox="0 0 1747 904" width="1747px" zoomAndPan="magnify"><defs/><g><text fill="#000000" font-family="sans-serif" font-size="14" font-weight="bold" lengthAdjust="spacing" textLength="372" x="680.5" y="24.9659">C4 Component Diagram - Extension Analysis Platform</text><!--cluster frontend--><g id="cluster_frontend"><rect fill="#ADD8E6" height="122.07" rx="2.5" ry="2.5" style="stroke:#181818;stroke-width:1.0;" width="678" x="529" y="47.0679"/><text fill="#000000" font-family="sans-serif" font-size="14" font-weight="bold" lengthAdjust="spacing" textLength="136" x="800" y="64.0339">Frontend Container</text><text fill="#000000" font-family="sans-serif" font-size="14" font-weight="bold" lengthAdjust="spacing" textLength="61" x="837.5" y="83.1018">(Web UI)</text></g><!--cluster backend--><g id="cluster_backend"><rect fill="#F08080" height="678.41" rx="2.5" ry="2.5" style="stroke:#181818;stroke-width:1.0;" width="1030" x="7" y="220.1379"/><text fill="#000000" font-family="sans-serif" font-size="14" font-weight="bold" lengthAdjust="spacing" textLength="131" x="456.5" y="237.1039">Backend Container</text><text fill="#000000" font-family="sans-serif" font-size="14" font-weight="bold" lengthAdjust="spacing" textLength="87" x="478.5" y="256.1718">(Django API)</text></g><!--cluster externals--><g id="cluster_externals"><rect fill="#6495ED" height="103.06" rx="2.5" ry="2.5" style="stroke:#181818;stroke-width:1.0;" width="560" x="1061" y="538.3479"/><text fill="#000000" font-family="sans-serif" font-size="14" font-weight="bold" lengthAdjust="spacing" textLength="119" x="1281.5" y="555.3139">External Systems</text></g><!--entity ui--><g id="elem_ui"><rect fill="#F1F1F1" height="49.0679" rx="2.5" ry="2.5" style="stroke:#181818;stroke-width:0.5;" width="172" x="545" y="104.0679"/><rect fill="#F1F1F1" height="10" style="stroke:#181818;stroke-width:0.5;" width="15" x="697" y="109.0679"/><rect fill="#F1F1F1" height="2" style="stroke:#181818;stroke-width:0.5;" width="4" x="695" y="111.0679"/><rect fill="#F1F1F1" height="2" style="stroke:#181818;stroke-width:0.5;" width="4" x="695" y="115.0679"/><text fill="#000000" font-family="sans-serif" font-size="14" lengthAdjust="spacing" textLength="132" x="560" y="139.0339">Upload + Results UI</text></g><!--entity sign--><g id="elem_sign"><rect fill="#F1F1F1" height="49.0679" rx="2.5" ry="2.5" style="stroke:#181818;stroke-width:0.5;" width="87" x="751.5" y="104.0679"/><rect fill="#F1F1F1" height="10" style="stroke:#181818;stroke-width:0.5;" width="15" x="818.5" y="109.0679"/><rect fill="#F1F1F1" height="2" style="stroke:#181818;stroke-width:0.5;" width="4" x="816.5" y="111.0679"/><rect fill="#F1F1F1" height="2" style="stroke:#181818;stroke-width:0.5;" width="4" x="816.5" y="115.0679"/><text fill="#000000" font-family="sans-serif" font-size="14" lengthAdjust="spacing" textLength="47" x="766.5" y="139.0339">Sign in</text></g><!--entity mitre--><g id="elem_mitre"><rect fill="#F1F1F1" height="49.0679" rx="2.5" ry="2.5" style="stroke:#181818;stroke-width:0.5;" width="161" x="873.5" y="104.0679"/><rect fill="#F1F1F1" height="10" style="stroke:#181818;stroke-width:0.5;" width="15" x="1014.5" y="109.0679"/><rect fill="#F1F1F1" height="2" style="stroke:#181818;stroke-width:0.5;" width="4" x="1012.5" y="111.0679"/><rect fill="#F1F1F1" height="2" style="stroke:#181818;stroke-width:0.5;" width="4" x="1012.5" y="115.0679"/><text fill="#000000" font-family="sans-serif" font-size="14" lengthAdjust="spacing" textLength="121" x="888.5" y="139.0339">MITRE Dashboard</text></g><!--entity history--><g id="elem_history"><rect fill="#F1F1F1" height="49.0679" rx="2.5" ry="2.5" style="stroke:#181818;stroke-width:0.5;" width="122" x="1069" y="104.0679"/><rect fill="#F1F1F1" height="10" style="stroke:#181818;stroke-width:0.5;" width="15" x="1171" y="109.0679"/><rect fill="#F1F1F1" height="2" style="stroke:#181818;stroke-width:0.5;" width="4" x="1169" y="111.0679"/><rect fill="#F1F1F1" height="2" style="stroke:#181818;stroke-width:0.5;" width="4" x="1169" y="115.0679"/><text fill="#000000" font-family="sans-serif" font-size="14" lengthAdjust="spacing" textLength="82" x="1084" y="139.0339">History View</text></g><!--entity api--><g id="elem_api"><rect fill="#F1F1F1" height="68.1358" rx="2.5" ry="2.5" style="stroke:#181818;stroke-width:0.5;" width="116" x="573" y="277.1379"/><rect fill="#F1F1F1" height="10" style="stroke:#181818;stroke-width:0.5;" width="15" x="669" y="282.1379"/><rect fill="#F1F1F1" height="2" style="stroke:#181818;stroke-width:0.5;" width="4" x="667" y="284.1379"/><rect fill="#F1F1F1" height="2" style="stroke:#181818;stroke-width:0.5;" width="4" x="667" y="288.1379"/><text fill="#000000" font-family="sans-serif" font-size="14" lengthAdjust="spacing" textLength="71" x="588" y="312.1039">API Router</text><text fill="#000000" font-family="sans-serif" font-size="14" lengthAdjust="spacing" textLength="76" x="588" y="331.1718">(apiCaller())</text></g><!--entity converter--><g id="elem_converter"><rect fill="#F1F1F1" height="49.0679" rx="2.5" ry="2.5" style="stroke:#181818;stroke-width:0.5;" width="186" x="23" y="424.2779"/><rect fill="#F1F1F1" height="10" style="stroke:#181818;stroke-width:0.5;" width="15" x="189" y="429.2779"/><rect fill="#F1F1F1" height="2" style="stroke:#181818;stroke-width:0.5;" width="4" x="187" y="431.2779"/><rect fill="#F1F1F1" height="2" style="stroke:#181818;stroke-width:0.5;" width="4" x="187" y="435.2779"/><text fill="#000000" font-family="sans-serif" font-size="14" lengthAdjust="spacing" textLength="146" x="38" y="459.2439">ExtensionIDConverter</text></g><!--entity report--><g id="elem_report"><rect fill="#F1F1F1" height="49.0679" rx="2.5" ry="2.5" style="stroke:#181818;stroke-width:0.5;" width="157" x="244.5" y="424.2779"/><rect fill="#F1F1F1" height="10" style="stroke:#181818;stroke-width:0.5;" width="15" x="381.5" y="429.2779"/><rect fill="#F1F1F1" height="2" style="stroke:#181818;stroke-width:0.5;" width="4" x="379.5" y="431.2779"/><rect fill="#F1F1F1" height="2" style="stroke:#181818;stroke-width:0.5;" width="4" x="379.5" y="435.2779"/><text fill="#000000" font-family="sans-serif" font-size="14" lengthAdjust="spacing" textLength="117" x="259.5" y="459.2439">Report Generator</text></g><!--entity vt--><g id="elem_vt"><rect fill="#F1F1F1" height="49.0679" rx="2.5" ry="2.5" style="stroke:#181818;stroke-width:0.5;" width="121" x="474.5" y="424.2779"/><rect fill="#F1F1F1" height="10" style="stroke:#181818;stroke-width:0.5;" width="15" x="575.5" y="429.2779"/><rect fill="#F1F1F1" height="2" style="stroke:#181818;stroke-width:0.5;" width="4" x="573.5" y="431.2779"/><rect fill="#F1F1F1" height="2" style="stroke:#181818;stroke-width:0.5;" width="4" x="573.5" y="435.2779"/><text fill="#000000" font-family="sans-serif" font-size="14" lengthAdjust="spacing" textLength="81" x="489.5" y="459.2439">VT Interface</text></g><!--entity sa--><g id="elem_sa"><rect fill="#F1F1F1" height="49.0679" rx="2.5" ry="2.5" style="stroke:#181818;stroke-width:0.5;" width="193" x="630.5" y="424.2779"/><rect fill="#F1F1F1" height="10" style="stroke:#181818;stroke-width:0.5;" width="15" x="803.5" y="429.2779"/><rect fill="#F1F1F1" height="2" style="stroke:#181818;stroke-width:0.5;" width="4" x="801.5" y="431.2779"/><rect fill="#F1F1F1" height="2" style="stroke:#181818;stroke-width:0.5;" width="4" x="801.5" y="435.2779"/><text fill="#000000" font-family="sans-serif" font-size="14" lengthAdjust="spacing" textLength="153" x="645.5" y="459.2439">SecureAnnex Interface</text></g><!--entity opswat--><g id="elem_opswat"><rect fill="#F1F1F1" height="49.0679" rx="2.5" ry="2.5" style="stroke:#181818;stroke-width:0.5;" width="162" x="859" y="424.2779"/><rect fill="#F1F1F1" height="10" style="stroke:#181818;stroke-width:0.5;" width="15" x="1001" y="429.2779"/><rect fill="#F1F1F1" height="2" style="stroke:#181818;stroke-width:0.5;" width="4" x="999" y="431.2779"/><rect fill="#F1F1F1" height="2" style="stroke:#181818;stroke-width:0.5;" width="4" x="999" y="435.2779"/><text fill="#000000" font-family="sans-serif" font-size="14" lengthAdjust="spacing" textLength="122" x="874" y="459.2439">OPSWAT Interface</text></g><!--entity db_mod--><g id="elem_db_mod"><rect fill="#F1F1F1" height="49.0679" rx="2.5" ry="2.5" style="stroke:#181818;stroke-width:0.5;" width="150" x="248" y="706.4079"/><rect fill="#F1F1F1" height="10" style="stroke:#181818;stroke-width:0.5;" width="15" x="378" y="711.4079"/><rect fill="#F1F1F1" height="2" style="stroke:#181818;stroke-width:0.5;" width="4" x="376" y="713.4079"/><rect fill="#F1F1F1" height="2" style="stroke:#181818;stroke-width:0.5;" width="4" x="376" y="717.4079"/><text fill="#000000" font-family="sans-serif" font-size="14" lengthAdjust="spacing" textLength="110" x="263" y="741.3739">Database Parser</text></g><!--entity ai--><g id="elem_ai"><rect fill="#F1F1F1" height="49.0679" rx="2.5" ry="2.5" style="stroke:#181818;stroke-width:0.5;" width="109" x="258.5" y="576.3479"/><rect fill="#F1F1F1" height="10" style="stroke:#181818;stroke-width:0.5;" width="15" x="347.5" y="581.3479"/><rect fill="#F1F1F1" height="2" style="stroke:#181818;stroke-width:0.5;" width="4" x="345.5" y="583.3479"/><rect fill="#F1F1F1" height="2" style="stroke:#181818;stroke-width:0.5;" width="4" x="345.5" y="587.3479"/><text fill="#000000" font-family="sans-serif" font-size="14" lengthAdjust="spacing" textLength="69" x="273.5" y="611.3139">AI Module</text></g><!--entity db--><g id="elem_db"><path d="M395,844.4779 C395,834.4779 438,834.4779 438,834.4779 C438,834.4779 481,834.4779 481,844.4779 L481,872.5458 C481,882.5458 438,882.5458 438,882.5458 C438,882.5458 395,882.5458 395,872.5458 L395,844.4779 " fill="#F1F1F1" style="stroke:#181818;stroke-width:0.5;"/><path d="M395,844.4779 C395,854.4779 438,854.4779 438,854.4779 C438,854.4779 481,854.4779 481,844.4779 " fill="none" style="stroke:#181818;stroke-width:0.5;"/><text fill="#000000" font-family="sans-serif" font-size="14" lengthAdjust="spacing" textLength="66" x="405" y="873.4439">SQLite DB</text></g><!--entity vt_ext--><g id="elem_vt_ext"><rect fill="#F1F1F1" height="49.0679" rx="2.5" ry="2.5" style="stroke:#181818;stroke-width:0.5;" width="107" x="1498.5" y="576.3479"/><rect fill="#F1F1F1" height="10" style="stroke:#181818;stroke-width:0.5;" width="15" x="1585.5" y="581.3479"/><rect fill="#F1F1F1" height="2" style="stroke:#181818;stroke-width:0.5;" width="4" x="1583.5" y="583.3479"/><rect fill="#F1F1F1" height="2" style="stroke:#181818;stroke-width:0.5;" width="4" x="1583.5" y="587.3479"/><text fill="#000000" font-family="sans-serif" font-size="14" lengthAdjust="spacing" textLength="67" x="1513.5" y="611.3139">VirusTotal</text></g><!--entity sa_ext--><g id="elem_sa_ext"><rect fill="#F1F1F1" height="49.0679" rx="2.5" ry="2.5" style="stroke:#181818;stroke-width:0.5;" width="154" x="1077" y="576.3479"/><rect fill="#F1F1F1" height="10" style="stroke:#181818;stroke-width:0.5;" width="15" x="1211" y="581.3479"/><rect fill="#F1F1F1" height="2" style="stroke:#181818;stroke-width:0.5;" width="4" x="1209" y="583.3479"/><rect fill="#F1F1F1" height="2" style="stroke:#181818;stroke-width:0.5;" width="4" x="1209" y="587.3479"/><text fill="#000000" font-family="sans-serif" font-size="14" lengthAdjust="spacing" textLength="114" x="1092" y="611.3139">SecureAnnex API</text></g><!--entity ops_ext--><g id="elem_ops_ext"><rect fill="#F1F1F1" height="49.0679" rx="2.5" ry="2.5" style="stroke:#181818;stroke-width:0.5;" width="198" x="1266" y="576.3479"/><rect fill="#F1F1F1" height="10" style="stroke:#181818;stroke-width:0.5;" width="15" x="1444" y="581.3479"/><rect fill="#F1F1F1" height="2" style="stroke:#181818;stroke-width:0.5;" width="4" x="1442" y="583.3479"/><rect fill="#F1F1F1" height="2" style="stroke:#181818;stroke-width:0.5;" width="4" x="1442" y="587.3479"/><text fill="#000000" font-family="sans-serif" font-size="14" lengthAdjust="spacing" textLength="158" x="1281" y="611.3139">OPSWAT MetaDefender</text></g><!--link ui to api--><g id="link_ui_api"><path d="M631,153.5879 C631,185.2579 631,235.1679 631,270.9079 " fill="none" id="ui-to-api" style="stroke:#181818;stroke-width:1.0;"/><polygon fill="#181818" points="631,276.9079,635,267.9079,631,271.9079,627,267.9079,631,276.9079" style="stroke:#181818;stroke-width:1.0;"/><text fill="#000000" font-family="sans-serif" font-size="13" lengthAdjust="spacing" textLength="122" x="632" y="200.0349">Submit scan request</text></g><!--link history to db--><g id="link_history_db"><path d="M1191.34,137.3679 C1330.48,156.6879 1658,212.5379 1658,310.2079 C1658,310.2079 1658,310.2079 1658,731.9479 C1658,852.7779 704.75,858.0679 487.42,857.7079 " fill="none" id="history-to-db" style="stroke:#181818;stroke-width:1.0;"/><polygon fill="#181818" points="481.42,857.6979,490.4134,861.7128,486.42,857.7062,490.4266,853.7128,481.42,857.6979" style="stroke:#181818;stroke-width:1.0;"/><text fill="#000000" font-family="sans-serif" font-size="13" lengthAdjust="spacing" textLength="80" x="1659" y="518.2449">Fetch reports</text></g><!--link mitre to api--><g id="link_mitre_api"><path d="M911.11,153.5879 C854.13,185.4479 758.5069,238.9096 694.6269,274.6296 " fill="none" id="mitre-to-api" style="stroke:#181818;stroke-width:1.0;"/><polygon fill="#181818" points="689.39,277.5579,699.1975,276.6567,693.7541,275.1176,695.2931,269.6742,689.39,277.5579" style="stroke:#181818;stroke-width:1.0;"/><text fill="#000000" font-family="sans-serif" font-size="13" lengthAdjust="spacing" textLength="120" x="850.52" y="200.0349">Start MITRE analysis</text></g><!--link api to converter--><g id="link_api_converter"><path d="M572.67,316.9279 C471.69,325.7479 268.89,346.4579 204,375.2779 C178.49,386.6079 158.6304,403.223 142.1204,419.673 " fill="none" id="api-to-converter" style="stroke:#181818;stroke-width:1.0;"/><polygon fill="#181818" points="137.87,423.9079,147.0688,420.3891,141.412,420.3788,141.4223,414.722,137.87,423.9079" style="stroke:#181818;stroke-width:1.0;"/><text fill="#000000" font-family="sans-serif" font-size="13" lengthAdjust="spacing" textLength="99" x="205" y="390.1749">Get extension ID</text></g><!--link api to vt--><g id="link_api_vt"><path d="M606.48,345.4779 C599.49,355.0579 591.9,365.5479 585,375.2779 C573.59,391.3679 564.366,404.7046 554.666,418.8946 " fill="none" id="api-to-vt" style="stroke:#181818;stroke-width:1.0;"/><polygon fill="#181818" points="551.28,423.8479,559.6612,418.6753,554.1016,419.7202,553.0568,414.1607,551.28,423.8479" style="stroke:#181818;stroke-width:1.0;"/><text fill="#000000" font-family="sans-serif" font-size="13" lengthAdjust="spacing" textLength="79" x="586" y="390.1749">Request scan</text></g><!--link api to sa--><g id="link_api_sa"><path d="M654.73,345.7279 C671.94,370.0379 691.3425,397.4414 706.7025,419.1314 " fill="none" id="api-to-sa" style="stroke:#181818;stroke-width:1.0;"/><polygon fill="#181818" points="710.17,424.0279,708.2331,414.3714,707.2804,419.9475,701.7043,418.9948,710.17,424.0279" style="stroke:#181818;stroke-width:1.0;"/><text fill="#000000" font-family="sans-serif" font-size="13" lengthAdjust="spacing" textLength="79" x="688.6" y="390.1749">Request scan</text></g><!--link api to opswat--><g id="link_api_opswat"><path d="M689.32,337.2279 C716.07,348.7479 748.17,362.6379 777,375.2779 C813.59,391.3179 849.2223,407.1696 880.9923,421.3696 " fill="none" id="api-to-opswat" style="stroke:#181818;stroke-width:1.0;"/><polygon fill="#181818" points="886.47,423.8179,879.8856,416.4936,881.9052,421.7776,876.6212,423.7972,886.47,423.8179" style="stroke:#181818;stroke-width:1.0;"/><text fill="#000000" font-family="sans-serif" font-size="13" lengthAdjust="spacing" textLength="79" x="818.31" y="390.1749">Request scan</text></g><!--link vt to vt_ext--><g id="link_vt_vt_ext"><path d="M595.85,472.9979 C644.78,490.3679 715.73,512.7379 780,522.3479 C818.57,528.1079 1446.03,515.2779 1482,530.3479 C1504.28,539.6779 1519.5783,555.0725 1532.1283,571.2925 " fill="none" id="vt-to-vt_ext" style="stroke:#181818;stroke-width:1.0;"/><polygon fill="#181818" points="1535.8,576.0379,1533.4561,566.472,1532.7403,572.0834,1527.1289,571.3676,1535.8,576.0379" style="stroke:#181818;stroke-width:1.0;"/><text fill="#000000" font-family="sans-serif" font-size="13" lengthAdjust="spacing" textLength="167" x="781" y="518.2449">External scan &amp; Sandboxing</text></g><!--link sa to sa_ext--><g id="link_sa_sa_ext"><path d="M823.78,471.8079 C899.69,489.6479 998.7,514.3679 1037,530.3479 C1066.22,542.5379 1091.8939,557.7256 1114.5039,572.5656 " fill="none" id="sa-to-sa_ext" style="stroke:#181818;stroke-width:1.0;"/><polygon fill="#181818" points="1119.52,575.8579,1114.1908,567.5755,1115.3399,573.1144,1109.8011,574.2635,1119.52,575.8579" style="stroke:#181818;stroke-width:1.0;"/><text fill="#000000" font-family="sans-serif" font-size="13" lengthAdjust="spacing" textLength="79" x="1013.36" y="518.2449">External scan</text></g><!--link opswat to ops_ext--><g id="link_opswat_ops_ext"><path d="M1016.77,473.7979 C1068,489.1979 1137.08,508.7679 1199,522.3479 C1220.98,527.1679 1227.85,522.6379 1249,530.3479 C1279.22,541.3579 1305.3782,557.0952 1327.7582,572.5052 " fill="none" id="opswat-to-ops_ext" style="stroke:#181818;stroke-width:1.0;"/><polygon fill="#181818" points="1332.7,575.9079,1327.5558,567.5093,1328.5818,573.0723,1323.0188,574.0984,1332.7,575.9079" style="stroke:#181818;stroke-width:1.0;"/><text fill="#000000" font-family="sans-serif" font-size="13" lengthAdjust="spacing" textLength="79" x="1200" y="518.2449">External scan</text></g><!--link api to report--><g id="link_api_report"><path d="M572.51,315.5379 C491.66,321.4979 352.14,337.1579 321,375.2779 C310.08,388.6379 310.0632,402.6333 313.6732,418.1833 " fill="none" id="api-to-report" style="stroke:#181818;stroke-width:1.0;"/><polygon fill="#181818" points="315.03,424.0279,316.8911,414.3565,313.8993,419.1574,309.0984,416.1656,315.03,424.0279" style="stroke:#181818;stroke-width:1.0;"/><text fill="#000000" font-family="sans-serif" font-size="13" lengthAdjust="spacing" textLength="106" x="322" y="390.1749">Aggregate results</text></g><!--link report to ai--><g id="link_report_ai"><path d="M315.87,473.8379 C313.5,482.9879 311.17,493.5579 310,503.3479 C307.05,527.9879 307.9731,550.422 309.7331,570.012 " fill="none" id="report-to-ai" style="stroke:#181818;stroke-width:1.0;"/><polygon fill="#181818" points="310.27,575.9879,313.4486,566.6661,309.8226,571.008,305.4807,567.3819,310.27,575.9879" style="stroke:#181818;stroke-width:1.0;"/><text fill="#000000" font-family="sans-serif" font-size="13" lengthAdjust="spacing" textLength="117" x="311" y="518.2449">Pass extracted data</text></g><!--link ai to db_mod--><g id="link_ai_db_mod"><path d="M313.93,625.7379 C314.58,640.3779 315.6,659.4979 317,676.4079 C317.8,686.1079 318.2427,690.7986 319.3227,700.0286 " fill="none" id="ai-to-db_mod" style="stroke:#181818;stroke-width:1.0;"/><polygon fill="#181818" points="320.02,705.9879,322.9469,696.584,319.4389,701.0218,315.0012,697.5138,320.02,705.9879" style="stroke:#181818;stroke-width:1.0;"/><text fill="#000000" font-family="sans-serif" font-size="13" lengthAdjust="spacing" textLength="110" x="318" y="672.3049">Store in DB format</text></g><!--link db_mod to db--><g id="link_db_mod_db"><path d="M325.28,755.9379 C327.78,771.1879 333.02,790.5979 344,804.4779 C357.02,820.9379 371.219,830.5763 389.179,839.0963 " fill="none" id="db_mod-to-db" style="stroke:#181818;stroke-width:1.0;"/><polygon fill="#181818" points="394.6,841.6679,388.183,834.1965,390.0825,839.5249,384.7542,841.4244,394.6,841.6679" style="stroke:#181818;stroke-width:1.0;"/><text fill="#000000" font-family="sans-serif" font-size="13" lengthAdjust="spacing" textLength="83" x="345" y="800.3749">Persist results</text></g><!--link api to vt_ext--><g id="link_api_vt_ext"><path d="M689.36,324.9279 C745.13,337.2379 831.5,356.7079 906,375.2779 C1163.25,439.3779 1252.26,398.0379 1482,530.3479 C1502.19,541.9679 1516.7917,556.2984 1529.6917,571.4584 " fill="none" id="api-to-vt_ext" style="stroke:#181818;stroke-width:1.0;"/><polygon fill="#181818" points="1533.58,576.0279,1530.7939,566.5814,1530.3397,572.22,1524.7011,571.7658,1533.58,576.0279" style="stroke:#181818;stroke-width:1.0;"/><text fill="#000000" font-family="sans-serif" font-size="13" lengthAdjust="spacing" textLength="83" x="1365.8" y="454.2049">MITRE lookup</text></g><!--link api to db--><g id="link_api_db"><path d="M572.57,326.6279 C515.76,344.5679 438,381.2679 438,447.8079 C438,447.8079 438,447.8079 438,731.9479 C438,767.6979 438,803.1779 438,828.3679 " fill="none" id="api-to-db" style="stroke:#181818;stroke-width:1.0;"/><polygon fill="#181818" points="438,834.3679,442,825.3679,438,829.3679,434,825.3679,438,834.3679" style="stroke:#181818;stroke-width:1.0;"/><text fill="#000000" font-family="sans-serif" font-size="13" lengthAdjust="spacing" textLength="99" x="439" y="606.2749">Save MITRE data</text></g><!--SRC=[TLJBRjim4BppAnOEq2OeSYbwwg60OoMfWGHrhJmk1OALj9RPKAHAKawCel_U5KchaPhSHCxiQtOeBxqYM7o2XMbQeqbxo2JM5XiuXVDdJzf9es6kKUsTTB1Iw3V6DaAuHwbRx8a5be-rDPsk5aOP2_TRwUa5NXvIvtxFnRf6VHJ2KkbHrtoUNLYZkL35FMYFKfFzeO_lgO3RvSaCqC7cG3YwalNMdwcEuBU0VubXTjigWnLyW3MvJdd7iI6qasDUBciDKWVCyVSOlLxUhCyXGxSj3Degi1hfBOrfNwNpnkxXJj9Ju6pZXVWpckkCTPcEbVraqC1ybKOh4YTEjZ0MrNGqviBQT3x4OoiNg1JPuvEOW2_6z65foumBxyXoO62MXzEOlwRMM0-Nn0qYJn6uDboEYNStiEGrs0sM54Yx2I6dihCqrvgU9qo7O-QtLNu_dwOphNl2ISeCFHRe25PeNPgZAXuQKqqqMiArgJeLCs4lINK8dUNVhzYGa9sbyCcQUi4i-nlolVFKkC2YTEdWY9UYDyeyaNtDU7VITkx6U5H9amSEVLiNNcPIv7zUKkMQF6QqOLUaWLcOGEQstyFmM4w_G3AOw2ISyf6j09yXxmgsBBWIDQ_nLqVEY-JFmAeA9bsGBxTfoqu4YxzCuP4T4Hy3ffVVrpuOMkgaM2-Bw6FwsC5VdE6IV90m_ZsMsK3QUKRNiQtGuu0uV0k9nfYYWbF5ZBquZ0vx3AE_WnnrLPXdgMiGd3pMU8qhKe5KwrNAq4pKZF5vNLkgaOrbuoz792ZesCkuGXUCPB7qL0L32fHf2Rs7WzI6fPUQtGdzVvKVGCA6NQt8ilv-ACEBYAjnBPMI6zpoe8h7V25ocY7ob36FNJkW8McEEqfmwEil]--></g></svg>