<svg xmlns="http://www.w3.org/2000/svg" xmlns:xlink="http://www.w3.org/1999/xlink" contentStyleType="text/css" data-diagram-type="DESCRIPTION" height="795px" preserveAspectRatio="none" style="width:1707px;height:795px;background:#FFFFFF;" version="1.1" viewBox="0 0 1707 795" width="1707px" zoomAndPan="magnify"><title>C4 Component Diagram - Extension Analysis Platform</title><defs/><g><g class="title" data-source-line="1"><text fill="#000000" font-family="sans-serif" font-size="14" font-weight="bold" lengthAdjust="spacing" textLength="372.4125" x="660.7113" y="24.9659">C4 Component Diagram - Extension Analysis Platform</text></g><!--cluster frontend--><g class="cluster" data-entity="frontend" data-source-line="6" data-uid="ent0002" id="cluster_frontend"><rect fill="#ADD8E6" height="122.07" rx="2.5" ry="2.5" style="stroke:#181818;stroke-width:1;" width="200" x="1436" y="47.0679"/><text fill="#000000" font-family="sans-serif" font-size="14" font-weight="bold" lengthAdjust="spacing" textLength="137.0175" x="1467.4913" y="64.0339">Frontend Container</text><text fill="#000000" font-family="sans-serif" font-size="14" font-weight="bold" lengthAdjust="spacing" textLength="59.9058" x="1506.0471" y="83.1018">(Web UI)</text></g><!--cluster backend--><g class="cluster" data-entity="backend" data-source-line="10" data-uid="ent0004" id="cluster_backend"><rect fill="#F08080" height="569.41" rx="2.5" ry="2.5" style="stroke:#181818;stroke-width:1;" width="980" x="7" y="220.1379"/><text fill="#000000" font-family="sans-serif" font-size="14" font-weight="bold" lengthAdjust="spacing" textLength="132.7475" x="430.6263" y="237.1039">Backend Container</text><text fill="#000000" font-family="sans-serif" font-size="14" font-weight="bold" lengthAdjust="spacing" textLength="86.4637" x="453.7682" y="256.1718">(Django API)</text></g><!--cluster externals--><g class="cluster" data-entity="externals" data-source-line="21" data-uid="ent0013" id="cluster_externals"><rect fill="#6495ED" height="122.13" rx="2.5" ry="2.5" style="stroke:#181818;stroke-width:1;" width="556" x="1011" y="538.3479"/><text fill="#000000" font-family="sans-serif" font-size="14" font-weight="bold" lengthAdjust="spacing" textLength="119.7695" x="1229.1152" y="555.3139">External Systems</text></g><!--entity ui--><g class="entity" data-entity="ui" data-source-line="7" data-uid="ent0003" id="entity_ui"><rect fill="#F1F1F1" height="49.0679" rx="2.5" ry="2.5" style="stroke:#181818;stroke-width:0.5;" width="168.6315" x="1451.68" y="104.0679"/><rect fill="#F1F1F1" height="10" style="stroke:#181818;stroke-width:0.5;" width="15" x="1600.3115" y="109.0679"/><rect fill="#F1F1F1" height="2" style="stroke:#181818;stroke-width:0.5;" width="4" x="1598.3115" y="111.0679"/><rect fill="#F1F1F1" height="2" style="stroke:#181818;stroke-width:0.5;" width="4" x="1598.3115" y="115.0679"/><text fill="#000000" font-family="sans-serif" font-size="14" lengthAdjust="spacing" textLength="128.6315" x="1466.68" y="139.0339">Upload + Results UI</text></g><!--entity api--><g class="entity" data-entity="api" data-source-line="11" data-uid="ent0005" id="entity_api"><rect fill="#F1F1F1" height="68.1358" rx="2.5" ry="2.5" style="stroke:#181818;stroke-width:0.5;" width="114.4797" x="570.76" y="277.1379"/><rect fill="#F1F1F1" height="10" style="stroke:#181818;stroke-width:0.5;" width="15" x="665.2397" y="282.1379"/><rect fill="#F1F1F1" height="2" style="stroke:#181818;stroke-width:0.5;" width="4" x="663.2397" y="284.1379"/><rect fill="#F1F1F1" height="2" style="stroke:#181818;stroke-width:0.5;" width="4" x="663.2397" y="288.1379"/><text fill="#000000" font-family="sans-serif" font-size="14" lengthAdjust="spacing" textLength="70.3637" x="585.76" y="312.1039">API Router</text><text fill="#000000" font-family="sans-serif" font-size="14" lengthAdjust="spacing" textLength="74.4797" x="585.76" y="331.1718">(apiCaller())</text></g><!--entity converter--><g class="entity" data-entity="converter" data-source-line="12" data-uid="ent0006" id="entity_converter"><rect fill="#F1F1F1" height="49.0679" rx="2.5" ry="2.5" style="stroke:#181818;stroke-width:0.5;" width="184.6894" x="22.66" y="424.2779"/><rect fill="#F1F1F1" height="10" style="stroke:#181818;stroke-width:0.5;" width="15" x="187.3494" y="429.2779"/><rect fill="#F1F1F1" height="2" style="stroke:#181818;stroke-width:0.5;" width="4" x="185.3494" y="431.2779"/><rect fill="#F1F1F1" height="2" style="stroke:#181818;stroke-width:0.5;" width="4" x="185.3494" y="435.2779"/><text fill="#000000" font-family="sans-serif" font-size="14" lengthAdjust="spacing" textLength="144.6894" x="37.66" y="459.2439">ExtensionIDConverter</text></g><!--entity report--><g class="entity" data-entity="report" data-source-line="13" data-uid="ent0007" id="entity_report"><rect fill="#F1F1F1" height="49.0679" rx="2.5" ry="2.5" style="stroke:#181818;stroke-width:0.5;" width="155.7376" x="242.13" y="424.2779"/><rect fill="#F1F1F1" height="10" style="stroke:#181818;stroke-width:0.5;" width="15" x="377.8676" y="429.2779"/><rect fill="#F1F1F1" height="2" style="stroke:#181818;stroke-width:0.5;" width="4" x="375.8676" y="431.2779"/><rect fill="#F1F1F1" height="2" style="stroke:#181818;stroke-width:0.5;" width="4" x="375.8676" y="435.2779"/><text fill="#000000" font-family="sans-serif" font-size="14" lengthAdjust="spacing" textLength="115.7376" x="257.13" y="459.2439">Report Generator</text></g><!--entity vt--><g class="entity" data-entity="vt" data-source-line="14" data-uid="ent0008" id="entity_vt"><rect fill="#F1F1F1" height="49.0679" rx="2.5" ry="2.5" style="stroke:#181818;stroke-width:0.5;" width="119.2397" x="432.38" y="424.2779"/><rect fill="#F1F1F1" height="10" style="stroke:#181818;stroke-width:0.5;" width="15" x="531.6197" y="429.2779"/><rect fill="#F1F1F1" height="2" style="stroke:#181818;stroke-width:0.5;" width="4" x="529.6197" y="431.2779"/><rect fill="#F1F1F1" height="2" style="stroke:#181818;stroke-width:0.5;" width="4" x="529.6197" y="435.2779"/><text fill="#000000" font-family="sans-serif" font-size="14" lengthAdjust="spacing" textLength="79.2397" x="447.38" y="459.2439">VT Interface</text></g><!--entity sa--><g class="entity" data-entity="sa" data-source-line="15" data-uid="ent0009" id="entity_sa"><rect fill="#F1F1F1" height="49.0679" rx="2.5" ry="2.5" style="stroke:#181818;stroke-width:0.5;" width="189.2394" x="586.38" y="424.2779"/><rect fill="#F1F1F1" height="10" style="stroke:#181818;stroke-width:0.5;" width="15" x="755.6194" y="429.2779"/><rect fill="#F1F1F1" height="2" style="stroke:#181818;stroke-width:0.5;" width="4" x="753.6194" y="431.2779"/><rect fill="#F1F1F1" height="2" style="stroke:#181818;stroke-width:0.5;" width="4" x="753.6194" y="435.2779"/><text fill="#000000" font-family="sans-serif" font-size="14" lengthAdjust="spacing" textLength="149.2394" x="601.38" y="459.2439">SecureAnnex Interface</text></g><!--entity opswat--><g class="entity" data-entity="opswat" data-source-line="16" data-uid="ent0010" id="entity_opswat"><rect fill="#F1F1F1" height="49.0679" rx="2.5" ry="2.5" style="stroke:#181818;stroke-width:0.5;" width="159.8955" x="811.05" y="424.2779"/><rect fill="#F1F1F1" height="10" style="stroke:#181818;stroke-width:0.5;" width="15" x="950.9455" y="429.2779"/><rect fill="#F1F1F1" height="2" style="stroke:#181818;stroke-width:0.5;" width="4" x="948.9455" y="431.2779"/><rect fill="#F1F1F1" height="2" style="stroke:#181818;stroke-width:0.5;" width="4" x="948.9455" y="435.2779"/><text fill="#000000" font-family="sans-serif" font-size="14" lengthAdjust="spacing" textLength="119.8955" x="826.05" y="459.2439">OPSWAT Interface</text></g><!--entity db_mod--><g class="entity" data-entity="db_mod" data-source-line="17" data-uid="ent0011" id="entity_db_mod"><rect fill="#F1F1F1" height="49.0679" rx="2.5" ry="2.5" style="stroke:#181818;stroke-width:0.5;" width="146.7076" x="387.65" y="585.8779"/><rect fill="#F1F1F1" height="10" style="stroke:#181818;stroke-width:0.5;" width="15" x="514.3576" y="590.8779"/><rect fill="#F1F1F1" height="2" style="stroke:#181818;stroke-width:0.5;" width="4" x="512.3576" y="592.8779"/><rect fill="#F1F1F1" height="2" style="stroke:#181818;stroke-width:0.5;" width="4" x="512.3576" y="596.8779"/><text fill="#000000" font-family="sans-serif" font-size="14" lengthAdjust="spacing" textLength="106.7076" x="402.65" y="620.8439">database parser</text></g><!--entity db--><g class="entity" data-entity="db" data-source-line="18" data-uid="ent0012" id="entity_db"><path d="M722.26,735.4779 C722.26,725.4779 764.9989,725.4779 764.9989,725.4779 C764.9989,725.4779 807.7377,725.4779 807.7377,735.4779 L807.7377,763.5458 C807.7377,773.5458 764.9989,773.5458 764.9989,773.5458 C764.9989,773.5458 722.26,773.5458 722.26,763.5458 L722.26,735.4779" fill="#F1F1F1" style="stroke:#181818;stroke-width:0.5;"/><path d="M722.26,735.4779 C722.26,745.4779 764.9989,745.4779 764.9989,745.4779 C764.9989,745.4779 807.7377,745.4779 807.7377,735.4779" fill="none" style="stroke:#181818;stroke-width:0.5;"/><text fill="#000000" font-family="sans-serif" font-size="14" lengthAdjust="spacing" textLength="65.4777" x="732.26" y="764.4439">SQLite DB</text></g><!--entity vt_ext--><g class="entity" data-entity="vt_ext" data-source-line="22" data-uid="ent0014" id="entity_vt_ext"><rect fill="#F1F1F1" height="68.1358" rx="2.5" ry="2.5" style="stroke:#181818;stroke-width:0.5;" width="105.9258" x="1027.04" y="576.3479"/><rect fill="#F1F1F1" height="10" style="stroke:#181818;stroke-width:0.5;" width="15" x="1112.9658" y="581.3479"/><rect fill="#F1F1F1" height="2" style="stroke:#181818;stroke-width:0.5;" width="4" x="1110.9658" y="583.3479"/><rect fill="#F1F1F1" height="2" style="stroke:#181818;stroke-width:0.5;" width="4" x="1110.9658" y="587.3479"/><text fill="#000000" font-family="sans-serif" font-size="14" lengthAdjust="spacing" textLength="3.64" x="1042.04" y="611.3139">&#160;</text><text fill="#000000" font-family="sans-serif" font-size="14" lengthAdjust="spacing" textLength="65.9258" x="1042.04" y="630.3818">VirusTotal</text></g><!--entity sa_ext--><g class="entity" data-entity="sa_ext" data-source-line="23" data-uid="ent0015" id="entity_sa_ext"><rect fill="#F1F1F1" height="49.0679" rx="2.5" ry="2.5" style="stroke:#181818;stroke-width:0.5;" width="151.9856" x="1168.01" y="585.8779"/><rect fill="#F1F1F1" height="10" style="stroke:#181818;stroke-width:0.5;" width="15" x="1299.9956" y="590.8779"/><rect fill="#F1F1F1" height="2" style="stroke:#181818;stroke-width:0.5;" width="4" x="1297.9956" y="592.8779"/><rect fill="#F1F1F1" height="2" style="stroke:#181818;stroke-width:0.5;" width="4" x="1297.9956" y="596.8779"/><text fill="#000000" font-family="sans-serif" font-size="14" lengthAdjust="spacing" textLength="111.9856" x="1183.01" y="620.8439">SecureAnnex API</text></g><!--entity ops_ext--><g class="entity" data-entity="ops_ext" data-source-line="24" data-uid="ent0016" id="entity_ops_ext"><rect fill="#F1F1F1" height="49.0679" rx="2.5" ry="2.5" style="stroke:#181818;stroke-width:0.5;" width="195.7494" x="1355.13" y="585.8779"/><rect fill="#F1F1F1" height="10" style="stroke:#181818;stroke-width:0.5;" width="15" x="1530.8794" y="590.8779"/><rect fill="#F1F1F1" height="2" style="stroke:#181818;stroke-width:0.5;" width="4" x="1528.8794" y="592.8779"/><rect fill="#F1F1F1" height="2" style="stroke:#181818;stroke-width:0.5;" width="4" x="1528.8794" y="596.8779"/><text fill="#000000" font-family="sans-serif" font-size="14" lengthAdjust="spacing" textLength="155.7494" x="1370.13" y="620.8439">OPSWAT MetaDefender</text></g><!--link ui to api--><g class="link" data-entity-1="ui" data-entity-2="api" data-source-line="28" data-uid="lnk17" id="link_ui_api"><path d="M1451.39,146.4379 C1268.58,182.7979 846.5748,266.7376 691.3948,297.5976" fill="none" id="ui-to-api" style="stroke:#181818;stroke-width:1;"/><polygon fill="#181818" points="685.51,298.7679,695.1173,300.9357,690.414,297.7927,693.557,293.0893,685.51,298.7679" style="stroke:#181818;stroke-width:1;"/><text fill="#000000" font-family="sans-serif" font-size="13" lengthAdjust="spacing" textLength="122.1351" x="1243.3" y="200.0349">POST / scan request</text></g><!--link api to converter--><g class="link" data-entity-1="api" data-entity-2="converter" data-source-line="30" data-uid="lnk18" id="link_api_converter"><path d="M570.42,315.7579 C466.27,322.9379 251.24,341.4379 185,375.2779 C163.03,386.4979 147.6716,402.607 135.0316,419.087" fill="none" id="api-to-converter" style="stroke:#181818;stroke-width:1;"/><polygon fill="#181818" points="131.38,423.8479,140.0313,419.1409,134.423,419.8805,133.6834,414.2722,131.38,423.8479" style="stroke:#181818;stroke-width:1;"/><text fill="#000000" font-family="sans-serif" font-size="13" lengthAdjust="spacing" textLength="118.3911" x="186" y="390.1749">derive extension ID</text></g><!--link api to vt--><g class="link" data-entity-1="api" data-entity-2="vt" data-source-line="31" data-uid="lnk19" id="link_api_vt"><path d="M594.38,345.7279 C570,370.0379 541.8595,398.1021 520.0995,419.7921" fill="none" id="api-to-vt" style="stroke:#181818;stroke-width:1;"/><polygon fill="#181818" points="515.85,424.0279,525.0481,420.5072,519.3912,420.4981,519.4003,414.8412,515.85,424.0279" style="stroke:#181818;stroke-width:1;"/><text fill="#000000" font-family="sans-serif" font-size="13" lengthAdjust="spacing" textLength="49.686" x="565.08" y="390.1749">file scan</text></g><!--link api to sa--><g class="link" data-entity-1="api" data-entity-2="sa" data-source-line="32" data-uid="lnk20" id="link_api_sa"><path d="M641.1,345.7279 C650.6,370.0379 661.0453,396.7498 669.5253,418.4398" fill="none" id="api-to-sa" style="stroke:#181818;stroke-width:1;"/><polygon fill="#181818" points="671.71,424.0279,672.1583,414.1893,669.8894,419.3712,664.7075,417.1023,671.71,424.0279" style="stroke:#181818;stroke-width:1;"/><text fill="#000000" font-family="sans-serif" font-size="13" lengthAdjust="spacing" textLength="86.0991" x="660.25" y="390.1749">ID-based scan</text></g><!--link api to opswat--><g class="link" data-entity-1="api" data-entity-2="opswat" data-source-line="33" data-uid="lnk21" id="link_api_opswat"><path d="M685.71,340.4279 C707.49,351.1979 732.46,363.6679 755,375.2779 C785.81,391.1379 814.9676,406.6725 841.4776,420.9525" fill="none" id="api-to-opswat" style="stroke:#181818;stroke-width:1;"/><polygon fill="#181818" points="846.76,423.7979,840.7334,416.0082,842.358,421.4267,836.9395,423.0514,846.76,423.7979" style="stroke:#181818;stroke-width:1;"/><text fill="#000000" font-family="sans-serif" font-size="13" lengthAdjust="spacing" textLength="49.686" x="789.75" y="390.1749">file scan</text></g><!--link api to report--><g class="link" data-entity-1="api" data-entity-2="report" data-source-line="34" data-uid="lnk22" id="link_api_report"><path d="M570.4,315.7679 C490.75,322.0179 353.23,338.0179 322,375.2779 C310.91,388.5079 310.1367,402.429 312.7267,418.019" fill="none" id="api-to-report" style="stroke:#181818;stroke-width:1;"/><polygon fill="#181818" points="313.71,423.9379,316.1809,414.4041,312.8906,419.0055,308.2891,415.7151,313.71,423.9379" style="stroke:#181818;stroke-width:1;"/><text fill="#000000" font-family="sans-serif" font-size="13" lengthAdjust="spacing" textLength="216.5412" x="323" y="390.1749">assemble scores, risks, permissions</text></g><!--link vt to vt_ext--><g class="link" data-entity-1="vt" data-entity-2="vt_ext" data-source-line="36" data-uid="lnk23" id="link_vt_vt_ext"><path d="M551.86,469.1279 C557.62,470.6779 563.4,472.1179 569,473.3479 C614.78,483.3979 944.2,511.2279 987,530.3479 C1010.8,540.9779 1028.9169,555.4361 1045.7669,571.9661" fill="none" id="vt-to-vt_ext" style="stroke:#181818;stroke-width:1;"/><polygon fill="#181818" points="1050.05,576.1679,1046.4265,567.0098,1046.4807,572.6664,1040.8241,572.7207,1050.05,576.1679" style="stroke:#181818;stroke-width:1;"/><text fill="#000000" font-family="sans-serif" font-size="13" lengthAdjust="spacing" textLength="110.1881" x="954.74" y="518.2449">Analyze extension</text></g><!--link sa to sa_ext--><g class="link" data-entity-1="sa" data-entity-2="sa_ext" data-source-line="37" data-uid="lnk24" id="link_sa_sa_ext"><path d="M775.88,469.9079 C782.01,471.0979 788.09,472.2579 794,473.3479 C951.59,502.3579 1004.29,463.6879 1150,530.3479 C1178.51,543.3879 1201.0954,563.2083 1218.7154,581.3983" fill="none" id="sa-to-sa_ext" style="stroke:#181818;stroke-width:1;"/><polygon fill="#181818" points="1222.89,585.7079,1219.5012,576.4604,1219.4112,582.1166,1213.755,582.0265,1222.89,585.7079" style="stroke:#181818;stroke-width:1;"/><text fill="#000000" font-family="sans-serif" font-size="13" lengthAdjust="spacing" textLength="110.1881" x="1125.73" y="518.2449">Analyze extension</text></g><!--link opswat to ops_ext--><g class="link" data-entity-1="opswat" data-entity-2="ops_ext" data-source-line="38" data-uid="lnk25" id="link_opswat_ops_ext"><path d="M971.14,454.1979 C1062.65,461.4679 1215.39,480.5779 1337,530.3479 C1369.93,543.8179 1398.3542,563.888 1420.7142,581.868" fill="none" id="opswat-to-ops_ext" style="stroke:#181818;stroke-width:1;"/><polygon fill="#181818" points="1425.39,585.6279,1420.8829,576.8709,1421.4935,582.4947,1415.8697,583.1053,1425.39,585.6279" style="stroke:#181818;stroke-width:1;"/><text fill="#000000" font-family="sans-serif" font-size="13" lengthAdjust="spacing" textLength="110.1881" x="1315.3" y="518.2449">Analyze extension</text></g><!--link report to db_mod--><g class="link" data-entity-1="report" data-entity-2="db_mod" data-source-line="40" data-uid="lnk26" id="link_report_db_mod"><path d="M341.11,473.7079 C367.77,503.8779 409.3874,550.9915 436.0074,581.1215" fill="none" id="report-to-db_mod" style="stroke:#181818;stroke-width:1;"/><polygon fill="#181818" points="439.98,585.6179,437.0187,576.2248,436.6695,581.8709,431.0234,581.5217,439.98,585.6179" style="stroke:#181818;stroke-width:1;"/><text fill="#000000" font-family="sans-serif" font-size="13" lengthAdjust="spacing" textLength="118.5731" x="383.06" y="518.2449">Convert dict to json</text></g><!--link db_mod to db--><g class="link" data-entity-1="db_mod" data-entity-2="db" data-source-line="41" data-uid="lnk27" id="link_db_mod_db"><path d="M513.95,635.2979 C572.98,661.9179 661.8403,701.9917 716.5103,726.6417" fill="none" id="db_mod-to-db" style="stroke:#181818;stroke-width:1;"/><polygon fill="#181818" points="721.98,729.1079,715.4196,721.7621,717.4219,727.0527,712.1313,729.0551,721.98,729.1079" style="stroke:#181818;stroke-width:1;"/><text fill="#000000" font-family="sans-serif" font-size="13" lengthAdjust="spacing" textLength="85.8131" x="641.23" y="691.3749">persist results</text></g><!--reverse link ui to db--><g class="link" data-entity-1="ui" data-entity-2="db" data-source-line="43" data-uid="lnk28" id="link_ui_db"><path d="M1554.3373,158.5087 C1574.3873,192.0687 1604,250.7379 1604,310.2079 C1604,310.2079 1604,310.2079 1604,611.4079 C1604,641.6379 1592.81,652.7479 1567,668.4779 C1437.97,747.1479 955.72,750.0379 808.17,749.0279" fill="none" id="ui-backto-db" style="stroke:#181818;stroke-width:1;"/><polygon fill="#181818" points="1551.26,153.3579,1552.442,163.1356,1553.8244,157.6502,1559.3097,159.0326,1551.26,153.3579" style="stroke:#181818;stroke-width:1;"/><text fill="#000000" font-family="sans-serif" font-size="13" lengthAdjust="spacing" textLength="94.8351" x="1605" y="454.2049">Fetches reports</text></g><!--SRC=[TPHDRnD138Rlyokiz40gY90G9uIGqYn5aOeQcdvSAbNEhfDCCpkpZBrf2-A_uzsTX6PfJz6E7zkllo9M7C7a8qn2MGLFNY2pk8fOmWY-FWfvji73sADxOiimSoZB44jZU6DzXGsum7opYg7snIIu4E5cROMUsVDTwBayQRAwT1-CYPGB-fL-3qvZy9geK0rUq7gAjtvuGmkucXuF01cME-3epAxMSk9gWjy6_WM6mLNb0XRm5Yw8QoUilgrhRSsVWsGdAhQVAxjNOu3nBELR9APBDmaHNJ-Vid0HQcdziR8JT8xYyBWBe0-7-BwJqqmJRocgOqlckwz3_eAg40M-aGf42HqRsyT3yFeIfjgRkCISMcZR0-QKrv76tjDZZsGy9CzdyvjnFroe-05x8GiKN20Jw7WvrL4ixifGABSt3kO_pdGF83j9G6yGJKkYhXNCdrYev9QYzCXmf6ttInSUABuqxrj_RMFDbq7GfRhlrFdrsdLWgUh_kLJvTnBCQAcJJqLfyIsimj_eOkdgwmHvRIk6ePuCKubURCx7fhOm6drfvWwVO7O-luJtm3bwdTdFcbYCQKmDiX-uWfh7RgajkZkpQRRdjgB0qcgdcZZxPqPzdcQZfiN5eQaRrOjUtUQe2Lb5BrfpYCJl85hUw4z5iRJSQ61ZD7Mde2bUdThZ__LCfr4LdPXNYIGcwNeLCqbPmtKhf5Yw42XiBY01xbd9PEr0XLIn_X-9bjRUksb6y7aqweod9FcQTXUZnhy0]--></g></svg>