<?xml version="1.0" encoding="us-ascii" standalone="no"?><svg xmlns="http://www.w3.org/2000/svg" xmlns:xlink="http://www.w3.org/1999/xlink" contentStyleType="text/css" height="532px" preserveAspectRatio="none" style="width:510px;height:532px;background:#FFFFFF;" version="1.1" viewBox="0 0 510 532" width="510px" zoomAndPan="magnify"><defs/><g><text fill="#000000" font-family="sans-serif" font-size="14" font-weight="bold" lengthAdjust="spacing" textLength="141" x="177.75" y="24.9659">System Architecture</text><!--cluster Frontend--><g id="cluster_Frontend"><path d="M14.5,46.6699 L79.5,46.6699 A3.75,3.75 0 0 1 82,49.1699 L89,71.7378 L425.5,71.7378 A2.5,2.5 0 0 1 428,74.2378 L428,178.9999 A2.5,2.5 0 0 1 425.5,181.4999 L14.5,181.4999 A2.5,2.5 0 0 1 12,178.9999 L12,49.1699 A2.5,2.5 0 0 1 14.5,46.6699 " fill="#ADD8E6" style="stroke:#000000;stroke-width:1.5;"/><line style="stroke:#000000;stroke-width:1.5;" x1="12" x2="89" y1="71.7378" y2="71.7378"/><text fill="#000000" font-family="sans-serif" font-size="14" font-weight="bold" lengthAdjust="spacing" textLength="64" x="16" y="63.6358">Frontend</text></g><!--cluster Backend--><g id="cluster_Backend"><path d="M8.5,232.4999 L68.5,232.4999 A3.75,3.75 0 0 1 71,234.9999 L78,257.5678 L347.5,257.5678 A2.5,2.5 0 0 1 350,260.0678 L350,400.2299 A2.5,2.5 0 0 1 347.5,402.7299 L8.5,402.7299 A2.5,2.5 0 0 1 6,400.2299 L6,234.9999 A2.5,2.5 0 0 1 8.5,232.4999 " fill="#F08080" style="stroke:#000000;stroke-width:1.5;"/><line style="stroke:#000000;stroke-width:1.5;" x1="6" x2="78" y1="257.5678" y2="257.5678"/><text fill="#000000" font-family="sans-serif" font-size="14" font-weight="bold" lengthAdjust="spacing" textLength="59" x="10" y="249.4658">Backend</text></g><!--entity frontend--><g id="elem_frontend"><rect fill="#F1F1F1" height="49.0679" rx="2.5" ry="2.5" style="stroke:#181818;stroke-width:0.5;" width="101" x="28.5" y="100.5499"/><rect fill="#F1F1F1" height="10" style="stroke:#181818;stroke-width:0.5;" width="15" x="109.5" y="105.5499"/><rect fill="#F1F1F1" height="2" style="stroke:#181818;stroke-width:0.5;" width="4" x="107.5" y="107.5499"/><rect fill="#F1F1F1" height="2" style="stroke:#181818;stroke-width:0.5;" width="4" x="107.5" y="111.5499"/><text fill="#000000" font-family="sans-serif" font-size="14" lengthAdjust="spacing" textLength="61" x="43.5" y="135.5158">Web App</text></g><g id="elem_GMN4"><path d="M164,84.6699 L164,121.0799 L129.62,125.0799 L164,129.0799 L164,165.494 A0,0 0 0 0 164,165.494 L412,165.494 A0,0 0 0 0 412,165.494 L412,94.6699 L402,84.6699 L164,84.6699 A0,0 0 0 0 164,84.6699 " fill="#FEFFDD" style="stroke:#181818;stroke-width:0.5;"/><path d="M402,84.6699 L402,94.6699 L412,94.6699 L402,84.6699 " fill="#FEFFDD" style="stroke:#181818;stroke-width:0.5;"/><text fill="#000000" font-family="sans-serif" font-size="13" lengthAdjust="spacing" textLength="147" x="170" y="103.5669">Frontend should handle:</text><text fill="#000000" font-family="sans-serif" font-size="13" lengthAdjust="spacing" textLength="101" x="170" y="121.2729">- Extension input</text><text fill="#000000" font-family="sans-serif" font-size="13" lengthAdjust="spacing" textLength="94" x="170" y="138.9789">- Verdict output</text><text fill="#000000" font-family="sans-serif" font-size="13" lengthAdjust="spacing" textLength="227" x="170" y="156.685">- Visualization (score, heatmap, tables)</text></g><!--entity backend--><g id="elem_backend"><rect fill="#F1F1F1" height="49.0679" rx="2.5" ry="2.5" style="stroke:#181818;stroke-width:0.5;" width="114" x="22" y="304.0799"/><rect fill="#F1F1F1" height="10" style="stroke:#181818;stroke-width:0.5;" width="15" x="116" y="309.0799"/><rect fill="#F1F1F1" height="2" style="stroke:#181818;stroke-width:0.5;" width="4" x="114" y="311.0799"/><rect fill="#F1F1F1" height="2" style="stroke:#181818;stroke-width:0.5;" width="4" x="114" y="315.0799"/><text fill="#000000" font-family="sans-serif" font-size="14" lengthAdjust="spacing" textLength="74" x="37" y="339.0458">API Service</text></g><g id="elem_GMN9"><path d="M170.5,270.4999 L170.5,324.6099 L136.44,328.6099 L170.5,332.6099 L170.5,386.736 A0,0 0 0 0 170.5,386.736 L333.5,386.736 A0,0 0 0 0 333.5,386.736 L333.5,280.4999 L323.5,270.4999 L170.5,270.4999 A0,0 0 0 0 170.5,270.4999 " fill="#FEFFDD" style="stroke:#181818;stroke-width:0.5;"/><path d="M323.5,270.4999 L323.5,280.4999 L333.5,280.4999 L323.5,270.4999 " fill="#FEFFDD" style="stroke:#181818;stroke-width:0.5;"/><text fill="#000000" font-family="sans-serif" font-size="13" lengthAdjust="spacing" textLength="142" x="176.5" y="289.3969">Backend should handle:</text><text fill="#000000" font-family="sans-serif" font-size="13" lengthAdjust="spacing" textLength="89" x="176.5" y="307.1029">- Fetching data</text><text fill="#000000" font-family="sans-serif" font-size="13" lengthAdjust="spacing" textLength="130" x="176.5" y="324.8089">- Parsing/Normalizing</text><text fill="#000000" font-family="sans-serif" font-size="13" lengthAdjust="spacing" textLength="79" x="176.5" y="342.515">- Risk Scoring</text><text fill="#000000" font-family="sans-serif" font-size="13" lengthAdjust="spacing" textLength="112" x="176.5" y="360.221">- ATT&amp;CK mapping</text><text fill="#000000" font-family="sans-serif" font-size="13" lengthAdjust="spacing" textLength="25" x="176.5" y="377.927">- etc</text></g><!--entity db--><g id="elem_db"><path d="M37.5,477.7299 C37.5,467.7299 79,467.7299 79,467.7299 C79,467.7299 120.5,467.7299 120.5,477.7299 L120.5,505.7978 C120.5,515.7978 79,515.7978 79,515.7978 C79,515.7978 37.5,515.7978 37.5,505.7978 L37.5,477.7299 " fill="#F1F1F1" style="stroke:#181818;stroke-width:0.5;"/><path d="M37.5,477.7299 C37.5,487.7299 79,487.7299 79,487.7299 C79,487.7299 120.5,487.7299 120.5,477.7299 " fill="none" style="stroke:#181818;stroke-width:0.5;"/><text fill="#000000" font-family="sans-serif" font-size="14" lengthAdjust="spacing" textLength="63" x="47.5" y="506.6958">Database</text></g><!--entity external--><g id="elem_external"><rect fill="#6495ED" height="39.0679" rx="2.5" ry="2.5" style="stroke:#181818;stroke-width:0.5;" width="134" x="300" y="472.2299"/><text fill="#000000" font-family="sans-serif" font-size="14" lengthAdjust="spacing" textLength="114" x="310" y="497.1958">External Services</text></g><g id="elem_GMN14"><path d="M368.5,305.9099 L368.5,351.3219 A0,0 0 0 0 368.5,351.3219 L422.55,351.3219 L375.05,471.9699 L430.55,351.3219 L503.5,351.3219 A0,0 0 0 0 503.5,351.3219 L503.5,315.9099 L493.5,305.9099 L368.5,305.9099 A0,0 0 0 0 368.5,305.9099 " fill="#FEFFDD" style="stroke:#181818;stroke-width:0.5;"/><path d="M493.5,305.9099 L493.5,315.9099 L503.5,315.9099 L493.5,305.9099 " fill="#FEFFDD" style="stroke:#181818;stroke-width:0.5;"/><text fill="#000000" font-family="sans-serif" font-size="13" lengthAdjust="spacing" textLength="111" x="374.5" y="324.8069">Such as Virus Total</text><text fill="#000000" font-family="sans-serif" font-size="13" lengthAdjust="spacing" textLength="85" x="386.5" y="342.5129">or CRXcavator</text></g><!--link frontend to backend--><g id="link_frontend_backend"><path d="M79,149.9899 C79,188.7799 79,258.9699 79,297.7399 " fill="none" id="frontend-to-backend" style="stroke:#181818;stroke-width:1.0;"/><polygon fill="#181818" points="79,303.7399,83,294.7399,79,298.7399,75,294.7399,79,303.7399" style="stroke:#181818;stroke-width:1.0;"/><text fill="#000000" font-family="sans-serif" font-size="13" lengthAdjust="spacing" textLength="202" x="80" y="212.3969">Upload Extension / Request Score</text></g><!--link backend to db--><g id="link_backend_db"><path d="M79,353.3899 C79,384.0399 79,430.9799 79,461.4099 " fill="none" id="backend-to-db" style="stroke:#181818;stroke-width:1.0;"/><polygon fill="#181818" points="79,467.4099,83,458.4099,79,462.4099,75,458.4099,79,467.4099" style="stroke:#181818;stroke-width:1.0;"/><text fill="#000000" font-family="sans-serif" font-size="13" lengthAdjust="spacing" textLength="135" x="80" y="433.6269">Stores Analysis Results</text></g><!--link backend to external--><g id="link_backend_external"><path d="M93.72,353.5199 C106.78,372.4599 127.7,397.8199 153,410.7299 C181.29,425.1599 193.57,409.6699 224,418.7299 C265.43,431.0699 304.1491,451.9062 332.1991,468.7862 " fill="none" id="backend-to-external" style="stroke:#181818;stroke-width:1.0;"/><polygon fill="#181818" points="337.34,471.8799,331.6911,463.8121,333.0559,469.3018,327.5662,470.6666,337.34,471.8799" style="stroke:#181818;stroke-width:1.0;"/><text fill="#000000" font-family="sans-serif" font-size="13" lengthAdjust="spacing" textLength="69" x="274.12" y="433.6269">API Queries</text></g><!--SRC=[RPB1RXGn38RlUGfhAb6Gkkfz3qZJBPKG29MTfI0X3fcCToTgDWcnKoY8TyS9C-nKQaxHxzzEFjjisI5qZyHuX3QPqJ8QpWcL0gNEuHhtrYEOS8p1esTIKPjxVK1eRbBmZ7veuEozFOnyvJB2RmLoldx67jeOlu4cs4- -6l614LAnGzW_3StrWCQGtG2ZzeF3TOsjuCrFYP4D7goFcIVr3jDWZTJAl10jPUtiByt5_f9CI7W18se-wdW1h7k7zAgQotFbIqhzKIUoAxaim3OXQJUJjRTleSFqO0rMklwVzncuPMIg-3pQ3RBqtHzWqAnX4czr8j4kFuHqB31odo9RI_VG2TH9QdUx5vjt87Zn94hLfuo2M5xeDGdZzNHh2iJGAvLaxjeVP1kQqklaXNa2fGQA2sVvJ3hYzoxym5I7hYeuXrYmPvVgiXbBsfrDcM0NM3BhXqA2pVQBqG-QGrAd4Pp35bqT6gbvCs2rUZrt4jRmARgWXyKoN4hEzup4jIEePcj96th9wEGD96ZbHuzaIUoKdQpnqlWVR0rbl1yp9eka_W80]--></g></svg>